<?xml version="1.0" standalone="no"?>
<!DOCTYPE svg PUBLIC "-//W3C//DTD SVG 20010904//EN"
 "http://www.w3.org/TR/2001/REC-SVG-20010904/DTD/svg10.dtd">
<svg version="1.0" xmlns="http://www.w3.org/2000/svg"
 width="700.000000pt" height="700.000000pt" viewBox="0 0 700.000000 700.000000"
 preserveAspectRatio="xMidYMid meet">
<metadata>
Created by potrace 1.14, written by Peter Selinger 2001-2017
</metadata>
<g transform="translate(0.000000,700.000000) scale(0.100000,-0.100000)"
fill="#000000" stroke="none">
<path d="M1319 6996 c-2 -2 -29 -7 -60 -10 -31 -4 -71 -11 -88 -16 -17 -5 -34
-9 -36 -9 -14 -1 -67 -15 -120 -31 -317 -95 -635 -347 -807 -640 -105 -178
-164 -346 -196 -555 -4 -27 -7 -1038 -7 -2245 0 -1718 3 -2209 13 -2260 6 -36
14 -78 17 -94 23 -120 120 -349 201 -473 117 -179 311 -364 484 -462 67 -38
182 -91 247 -114 110 -40 178 -56 315 -77 38 -5 950 -8 2253 -6 2009 2 2197 3
2272 19 240 49 464 152 638 291 305 244 501 596 545 981 12 104 9 4411 -3
4460 -8 30 -14 60 -22 105 -9 49 -43 156 -73 231 -94 234 -263 455 -467 611
-146 110 -375 222 -523 254 -211 45 -73 42 -2403 43 -1197 0 -2178 -1 -2180
-3z m1891 -2653 l0 -318 -531 -263 -532 -262 169 -84 c93 -45 332 -163 532
-261 l362 -179 0 -318 c0 -175 -3 -318 -7 -318 -4 0 -39 16 -78 34 -38 19 -81
40 -95 45 -14 6 -32 15 -40 21 -8 5 -118 60 -245 121 -271 131 -531 258 -967
472 l-318 156 -1 85 c0 47 0 129 0 181 0 52 0 154 0 226 l1 130 348 171 c191
93 406 198 477 233 221 107 808 394 855 420 25 13 51 24 58 24 9 1 12 -69 12
-316z m720 256 c69 -34 202 -99 295 -144 94 -46 301 -147 460 -225 160 -78
367 -179 460 -225 280 -136 380 -186 388 -194 5 -5 9 -146 10 -314 l2 -306
-245 -120 c-135 -66 -402 -197 -595 -292 -192 -94 -415 -203 -495 -241 -80
-39 -203 -99 -273 -134 -70 -35 -132 -64 -137 -64 -6 0 -10 122 -10 318 l0
318 293 144 c425 209 744 367 756 375 10 6 -176 101 -796 406 l-253 124 0 318
c0 174 4 317 8 317 4 0 64 -28 132 -61z"/>
</g>
</svg>
